# xmcd
#
# Track frame offsets:
#	183
#	14660
#	33465
#	53315
#	81433
#	94650
#	108123
#	122583
#	135623
#	154028
#	168133
#	187315
#	202810
#	217475
#	235223
#	251468
#	268133
#
# Disc length: 3917 seconds
#
# Revision: 2
# Processed by: cddbd v1.4PL0 Copyright (c) Steve Scherf et al.
# Submitted via: EasyCDDAExtractor 4.6.9.1
#
DISCID=e90f4b11
DTITLE=King Pleasure And The Biskuit Boys - Live At Ronnie Scott's Birmingham
DYEAR=1993
DGENRE=Blues
TTITLE0=I'm The Fat Man
TTITLE1=I've Finished With The Blues
TTITLE2=What's Cookin' Toots?
TTITLE3=I Cried Last Night
TTITLE4=A Woman Is A Five Letter Word
TTITLE5=So Long (Baby I'm Gone)
TTITLE6=Going Back To New Orleans
TTITLE7=Morning, Noon And Night
TTITLE8=Angel City Blues
TTITLE9=Natural Born Lover
TTITLE10=Sassy Cassy
TTITLE11=Blues For Pleasure
TTITLE12=Greenbacks
TTITLE13=Blue Mood
TTITLE14=Walkin' Up Baby
TTITLE15=Applejack
TTITLE16=Going To California
EXTD=
EXTT0=
EXTT1=
EXTT2=
EXTT3=
EXTT4=
EXTT5=
EXTT6=
EXTT7=
EXTT8=
EXTT9=
EXTT10=
EXTT11=
EXTT12=
EXTT13=
EXTT14=
EXTT15=
EXTT16=
PLAYORDER=
